<svg xmlns="http://www.w3.org/2000/svg" viewBox="0 0 600 400">
  <defs>
    <linearGradient id="sky5" x1="0" y1="0" x2="0" y2="1">
      <stop offset="0%" stop-color="#FFE0B2"/>
      <stop offset="100%" stop-color="#FFF3E0"/>
    </linearGradient>
    <linearGradient id="pitcher5" x1="0" y1="0" x2="1" y2="0">
      <stop offset="0%" stop-color="#8D6E63"/>
      <stop offset="30%" stop-color="#A1887F"/>
      <stop offset="70%" stop-color="#8D6E63"/>
      <stop offset="100%" stop-color="#6D4C41"/>
    </linearGradient>
    <linearGradient id="water5" x1="0" y1="0" x2="0" y2="1">
      <stop offset="0%" stop-color="#4FC3F7"/>
      <stop offset="100%" stop-color="#0288D1"/>
    </linearGradient>
  </defs>
  <rect width="600" height="400" fill="url(#sky5)"/>
  <rect y="300" width="600" height="100" fill="#D7CCC8"/>
  <rect y="295" width="600" height="15" fill="#BCAAA4"/>
  <rect x="250" y="160" width="80" height="160" fill="url(#pitcher5)" rx="8"/>
  <rect x="245" y="155" width="90" height="15" fill="#6D4C41" rx="4"/>
  <rect x="265" y="250" width="50" height="65" fill="url(#water5)" rx="3" opacity="0.8"/>
  <ellipse cx="290" cy="250" rx="25" ry="4" fill="#81D4FA" opacity="0.6"/>
  <circle cx="160" cy="100" r="22" fill="#263238"/>
  <circle cx="160" cy="98" r="20" fill="#37474F"/>
  <circle cx="153" cy="94" r="5" fill="#FFC107"/>
  <circle cx="153" cy="94" r="2" fill="#000"/>
  <circle cx="153" cy="93" r="0.8" fill="#fff"/>
  <path d="M160 98 L185 92 L192 100 L185 106 L160 102Z" fill="#FF8F00"/>
  <path d="M192 100 L198 98 L196 102Z" fill="#E65100"/>
  <ellipse cx="138" cy="118" rx="16" ry="10" fill="#455A64"/>
  <ellipse cx="182" cy="118" rx="16" ry="10" fill="#455A64"/>
  <path d="M145 128 L138 160 L143 160 L150 135 L157 160 L161 160 L154 128Z" fill="#263238"/>
  <path d="M165 128 L158 160 L163 160 L170 135 L177 160 L181 160 L174 128Z" fill="#263238"/>
  <circle cx="200" cy="155" r="6" fill="#795548"/>
  <circle cx="200" cy="155" r="5" fill="#8D6E63"/>
  <circle cx="280" cy="300" r="5" fill="#795548"/>
  <circle cx="295" cy="295" r="4.5" fill="#8D6E63"/>
  <circle cx="310" cy="298" r="5" fill="#6D4C41"/>
  <circle cx="325" cy="293" r="4.5" fill="#795548"/>
  <circle cx="288" cy="288" r="4" fill="#8D6E63"/>
  <circle cx="303" cy="285" r="4" fill="#6D4C41"/>
  <circle cx="318" cy="288" r="4" fill="#795548"/>
  <path d="M290 148 L290 155" stroke="#795548" stroke-width="2" stroke-linecap="round" stroke-dasharray="2,3"/>
  <circle cx="290" cy="162" r="4" fill="#795548"/>
  <circle cx="290" cy="175" r="4" fill="#8D6E63" opacity="0.6"/>
  <circle cx="290" cy="190" r="4" fill="#6D4C41" opacity="0.3"/>
</svg>
